<?xml version="1.0" encoding="UTF-8"?><svg id="a" xmlns="http://www.w3.org/2000/svg" viewBox="0 0 118.75 46.34"><defs><style>.b{fill:#fff;stroke:#fff;stroke-miterlimit:10;}</style></defs><path class="b" d="M5.84,45.83c-1.03-.14-2.49-.24-3.92-.55-1.48-.32-1.87-1.57-.83-2.65,1.06-1.09,2.21-2.1,3.41-3.03,3.61-2.81,7.35-5.45,10.87-8.37,1.81-1.5,3.24-3.46,4.83-5.22,.22-.25,.4-.56,.53-.87,.3-.74-.11-1.28-.88-1.05-1.57,.45-3.12,.98-4.65,1.54-1.06,.38-2.08,.85-3.11,1.31-1.14,.5-2.26,1.03-3.4,1.54-.31,.14-.64,.38-.94,.36-.25-.02-.53-.33-.69-.57-.05-.08,.22-.44,.41-.56,.4-.27,.99-.37,1.25-.72,.5-.69,1.18-1.05,1.92-1.34,2.47-.97,4.94-1.94,7.44-2.83,.84-.3,1.76-.44,2.65-.54,1.21-.13,1.86,.56,1.93,1.81,.06,1.02-.29,1.9-.85,2.7-1.43,2.06-3.14,3.89-5.1,5.42-3.81,2.98-7.75,5.8-11.6,8.73-.71,.54-1.31,1.25-1.93,1.91-.41,.44-.3,.86,.26,1,.27,.07,.56,.09,.84,.08,1.75-.07,3.5-.1,5.25-.24,2.41-.2,4.82-.42,7.21-.75,1.84-.25,3.66-.65,5.48-1.02,3.92-.81,7.85-1.61,11.76-2.5,4.13-.95,8.22-2.02,12.34-3.01,2.46-.59,4.94-1.08,7.39-1.68,2.72-.67,5.42-1.43,8.14-2.13,1.14-.29,2.3-.51,3.45-.78,3.63-.85,7.26-1.69,10.88-2.56,4.99-1.21,9.98-2.4,14.94-3.68,3.77-.97,7.5-2.11,11.26-3.12,3.33-.89,6.67-1.71,10.01-2.57,1.64-.42,3.27-.86,4.9-1.31,.44-.12,.81-.11,.94,.39,.12,.44-.04,.82-.54,.86-2.97,.23-5.67,1.51-8.53,2.18-4.45,1.05-8.84,2.35-13.25,3.54-3.05,.82-6.09,1.66-9.15,2.45-4.7,1.22-9.4,2.43-14.1,3.63-2.07,.53-4.14,1.04-6.23,1.51-1.75,.39-3.54,.66-5.29,1.07-2.25,.53-4.47,1.15-6.71,1.72-1.63,.42-3.27,.81-4.91,1.25-1.85,.49-3.67,1.05-5.53,1.5-1.97,.47-3.97,.84-5.96,1.27-1.76,.38-3.52,.76-5.27,1.16-3.08,.7-6.15,1.44-9.23,2.13-1.99,.45-3.97,.9-5.98,1.23-2.22,.37-4.46,.62-6.7,.89-1.51,.18-3.03,.3-5,.49Z"/><path class="b" d="M38.02,3.27c-.71,.45-1.44,.86-2.12,1.36-1.23,.9-2.42,1.84-3.62,2.78-1.82,1.42-3.62,2.88-5.47,4.25-1.07,.79-2.32,1.15-3.68,1-1.63-.18-2.87-1.45-2.81-3.25,.08-2.08,.4-4.16,.64-6.23,.06-.5,.13-1.01,.28-1.49,.07-.22,.34-.39,.55-.51,.05-.03,.32,.25,.4,.42,.41,.89,.68,1.74,.47,2.81-.28,1.42-.2,2.91-.3,4.37-.08,1.2,.55,1.95,1.76,1.88,.6-.04,1.23-.24,1.76-.53,1.03-.57,2.04-1.22,2.99-1.91,1.55-1.12,3.06-2.32,4.59-3.47,1.72-1.28,3.43-2.56,5.18-3.8,.79-.56,1.38-.56,1.87-.14,.62,.53,.58,1.19,.34,1.87-.13,.37-.33,.72-.53,1.06-1.28,2.17-2.58,4.32-4.05,6.37-.95,1.32-1.67,2.81-2.58,4.17-1.47,2.19-2.32,4.78-4.19,6.73-.32,.33-.38,.91-.58,1.36-.2,.46-.4,.92-.64,1.35-.04,.08-.29,.08-.44,.05-.07-.01-.18-.19-.16-.27,.27-1.09,.39-2.24,.86-3.23,.84-1.78,1.88-3.46,2.86-5.17,.93-1.6,1.89-3.18,2.85-4.77,1.2-1.98,2.41-3.95,3.61-5.93,.17-.27,.26-.59,.39-.88l-.25-.23Z"/><path class="b" d="M34.56,29.26c.59-.5,.87-.75,1.17-.98,.27-.21,.53-.5,.83-.56,.42-.08,.94-.1,1.29,.1,.49,.27,.27,.81,.09,1.22-.23,.51-.48,1.02-.8,1.46-.43,.59-.94,1.11-1.42,1.67-.25,.29-.75,.57-.41,.96,.2,.24,.74,.36,1.07,.29,1.71-.35,3.47-.6,5.09-1.2,3.27-1.22,6.48-2.61,9.69-4,3.27-1.41,6.49-2.93,9.75-4.33,1.91-.82,3.87-1.53,5.82-2.27,.25-.09,.54-.07,1.2-.14-2.74,1.72-5.38,2.81-7.94,4.04-2.19,1.05-4.4,2.08-6.6,3.1-2.21,1.02-4.44,1.99-6.64,3.03-1.47,.69-3.02,1.2-4.38,2.13-.58,.39-1.38,.44-2.07,.69-1.6,.57-3.22,1.01-4.92,1.2-1.33,.15-2.26-.59-3.27-1.17-.19-.11-.31-.48-.33-.74-.04-.56-.11-1.16,.03-1.69,.73-2.84,.99-5.8,2.3-8.48,.1-.2,.11-.5,.26-.61,.3-.21,.68-.44,1.02-.43,.5,.01,.58,.49,.52,.9-.07,.5-.18,1-.33,1.48-.29,.92-.64,1.82-.91,2.74-.11,.38-.06,.81-.11,1.59Z"/><path class="b" d="M16.76,35.57c-.14-.84,.16-1.61,.68-2.32,1.03-1.42,2.17-2.68,3.83-3.45,1.51-.69,2.77-.42,3.86,.65,.55,.54,.98,.6,1.63,.28,.45-.22,.98-.43,1.45-.39,.44,.04,.94,.35,1.24,.7,.13,.15-.09,.74-.29,1.03-.71,1.01-1.49,1.97-2.23,2.96-.76,1.02-.76,2.38,.02,3.24,.38,.42,.95,.78,.35,1.39-.43,.43-1.41,.29-1.84-.23-.25-.3-.39-.68-.59-1.03-.49-.85-.89-1.13-1.67-.31-.41,.43-.98,.76-1.54,.99-3.1,1.29-5.27-.98-4.9-3.52Zm3.53,1.66c2.06,0,4.15-2.04,4.21-4.1,.02-.8-.5-1.35-1.35-1.43-1.47-.13-4.22,1.85-4.55,3.28-.23,1.02,.69,2.24,1.68,2.24Z"/><path class="b" d="M67.67,21.68c-1.3,.45-2.71,.73-3.89,1.4-2.8,1.58-5.85,2.58-8.7,4.04-.83,.43-1.69,.82-2.55,1.19-3.12,1.37-6.26,2.67-9.34,4.11-1.55,.72-3.14,1.24-4.77,1.68"/><path class="b" d="M39.26,2.46c.31,.75-.02,1.45-.36,2.03-1.07,1.8-2.28,3.51-3.37,5.29-1.78,2.9-3.71,5.72-5.12,8.84-.14,.3-.28,.64-.52,.84-1.31,1.13-1.43,2.76-1.86,4.26"/><path class="b" d="M39.77,1.61c-.17,.23-.37,.67-.51,.65-1.74-.23-2.73,1.13-3.89,1.94-2.75,1.92-5.36,4.04-8.02,6.09-.87,.66-1.81,1.16-2.89,1.36"/><path class="b" d="M21.32,7.56l.26-.85"/><path class="b" d="M21.57,6.54l.17-3.23"/><path class="b" d="M35.1,23.21c-.37,1.3-.58,2.69-1.17,3.88-.3,.6,0,1.25-.44,1.73"/></svg>